<svg xmlns="http://www.w3.org/2000/svg" viewBox="0 0 750.09 226.16"><defs><style>.cls-1,.cls-2,.cls-29,.cls-3,.cls-30,.cls-37,.cls-4,.cls-45,.cls-5,.cls-6{fill:none;}.cls-1,.cls-2,.cls-3,.cls-4,.cls-5,.cls-6{stroke:#fff;stroke-width:2px;}.cls-1,.cls-2,.cls-29,.cls-3,.cls-30,.cls-37,.cls-4,.cls-5,.cls-6{stroke-miterlimit:10;}.cls-2{stroke-dasharray:4.61 4.61;}.cls-3{stroke-dasharray:4.77 4.77;}.cls-4{stroke-dasharray:4.76 4.76;}.cls-5{stroke-dasharray:4.16 4.16;}.cls-6{stroke-dasharray:4.75 4.75;}.cls-7{font-size:14.94px;font-family:SegoeUI-Bold, Segoe UI;}.cls-21,.cls-7{fill:#fff;}.cls-15,.cls-16,.cls-19,.cls-44,.cls-8,.cls-9{font-weight:700;}.cls-9{letter-spacing:-0.07em;}.cls-10,.cls-11,.cls-12,.cls-13,.cls-14,.cls-17,.cls-18,.cls-31,.cls-32,.cls-35,.cls-38{font-family:SegoeUI, Segoe UI;}.cls-11,.cls-20{letter-spacing:-0.01em;}.cls-12{letter-spacing:-0.03em;}.cls-13{letter-spacing:0em;}.cls-14{letter-spacing:-0.02em;}.cls-15{letter-spacing:-0.07em;}.cls-16{letter-spacing:0em;}.cls-17{letter-spacing:-0.04em;}.cls-18{letter-spacing:-0.02em;}.cls-19{letter-spacing:0.01em;}.cls-22{fill:#b3b3b4;}.cls-23{fill:#00528a;}.cls-24,.cls-44{fill:#1d8ac2;}.cls-25{fill:#989899;}.cls-26,.cls-31{fill:#333;}.cls-27{fill:#606161;opacity:0.04;}.cls-28,.cls-32{fill:#11a89c;}.cls-29,.cls-30{stroke:#49494a;}.cls-29{stroke-width:0.44px;stroke-dasharray:1;}.cls-30{stroke-width:0.52px;}.cls-31{font-size:1.38px;}.cls-32{font-size:3.08px;}.cls-33{letter-spacing:-0.04em;}.cls-34,.cls-35,.cls-38{font-size:1.81px;}.cls-34{fill:#808181;font-family:SegoeUI-Semilight, Segoe UI;}.cls-35,.cls-40{fill:#49494a;}.cls-36,.cls-38{fill:#0773b7;}.cls-37{stroke:#0773b7;stroke-width:0.37px;}.cls-39{fill:#d6d6d6;}.cls-40{opacity:0.1;}.cls-41{fill:#b73b3b;}.cls-42{fill:#ffc34e;}.cls-43{fill:#22b173;}.cls-44{font-size:13.22px;font-family:SegoeUI-Semibold, Segoe UI;}</style></defs><title>diagram_energy_bottom</title><g id="Layer_2" data-name="Layer 2"><g id="Layer_3" data-name="Layer 3"><line class="cls-1" x1="375.08" y1="55.52" x2="375.08" y2="53.11"/><polyline class="cls-2" points="375.08 48.5 375.08 38.17 375.08 4.72"/><line class="cls-1" x1="375.08" y1="2.41" x2="375.08"/><line class="cls-1" x1="88.21" y1="54.93" x2="88.21" y2="52.52"/><line class="cls-3" x1="88.21" y1="47.74" x2="88.21" y2="31.04"/><polyline class="cls-1" points="88.21 28.65 88.21 26.23 90.62 26.23"/><line class="cls-4" x1="95.39" y1="26.24" x2="350.1" y2="26.24"/><polyline class="cls-1" points="352.48 26.23 354.89 26.23 354.89 23.82"/><line class="cls-5" x1="354.89" y1="19.66" x2="354.89" y2="5.09"/><line class="cls-1" x1="354.89" y1="3.01" x2="354.89" y2="0.59"/><line class="cls-1" x1="651.24" y1="54.93" x2="651.24" y2="52.52"/><line class="cls-3" x1="651.24" y1="47.74" x2="651.24" y2="31.04"/><polyline class="cls-1" points="651.24 28.65 651.24 26.23 648.83 26.23"/><line class="cls-6" x1="644.08" y1="26.24" x2="399.45" y2="26.24"/><polyline class="cls-1" points="397.07 26.23 394.66 26.23 394.66 23.82"/><line class="cls-5" x1="394.66" y1="19.66" x2="394.66" y2="5.09"/><line class="cls-1" x1="394.66" y1="3.01" x2="394.66" y2="0.59"/><text class="cls-7" transform="translate(3.1 82.07)"><tspan class="cls-8">ANA</tspan><tspan class="cls-9" x="32.81" y="0">L</tspan><tspan class="cls-8" x="39.39" y="0">YZE </tspan><tspan class="cls-10" x="69.6" y="0">ENE</tspan><tspan class="cls-11" x="95.89" y="0">R</tspan><tspan class="cls-10" x="104.61" y="0">GY </tspan><tspan class="cls-12" x="127.21" y="0">C</tspan><tspan class="cls-13" x="136.06" y="0">OS</tspan><tspan class="cls-14" x="155.26" y="0">T</tspan><tspan class="cls-10" x="162.8" y="0">S</tspan></text><text class="cls-7" transform="translate(274.51 82.07)"><tspan class="cls-8">GENER</tspan><tspan class="cls-15" x="48.08" y="0">A</tspan><tspan class="cls-16" x="57.54" y="0">TE </tspan><tspan class="cls-10" x="78.37" y="0">CARBON REPO</tspan><tspan class="cls-17" x="177.41" y="0">R</tspan><tspan class="cls-18" x="185.67" y="0">T</tspan><tspan class="cls-10" x="193.21" y="0">S</tspan></text><text class="cls-7" transform="translate(576.68 82.07)"><tspan class="cls-8">D</tspan><tspan class="cls-19" x="11.01" y="0">E</tspan><tspan class="cls-8" x="19.1" y="0">TECT </tspan><tspan class="cls-10" x="58" y="0">ABNORMAL</tspan><tspan class="cls-10"><tspan x="27.14" y="17.93">ENE</tspan><tspan class="cls-20" x="53.43" y="17.93">R</tspan><tspan x="62.16" y="17.93">GY USE</tspan></tspan></text><rect class="cls-21" x="306.85" y="98.66" width="138.02" height="84.97" rx="3.45" ry="3.45"/><path class="cls-22" d="M330.35,133l5.82-13.46a14.72,14.72,0,1,0,8.11,8.89Z"/><path class="cls-23" d="M348.63,124.11a14.65,14.65,0,0,0-8.11-8.89l-5.81,13.45Z"/><rect class="cls-22" x="355.12" y="122.02" width="39.49" height="3.56"/><rect class="cls-22" x="355.12" y="131.25" width="49.91" height="3.56"/><rect class="cls-22" x="346.67" y="153.99" width="49.91" height="3.56" transform="translate(743.26 311.55) rotate(-180)"/><rect class="cls-22" x="362.19" y="163.22" width="34.4" height="3.56" transform="translate(758.78 330) rotate(-180)"/><path class="cls-22" d="M412.44,175.05l9-11.59-14.62,1A14.67,14.67,0,0,0,412.44,175.05Z"/><path class="cls-22" d="M421.41,163.46l-9,11.59a14.37,14.37,0,0,0,4.06,2.22,14.66,14.66,0,1,0,9.83-27.62Z"/><path class="cls-23" d="M406,156.35a14.61,14.61,0,0,0-.81,5.88l14.63-1,4.92-13.82A14.68,14.68,0,0,0,406,156.35Z"/><rect class="cls-24" x="303.77" y="97.63" width="144.17" height="11.39"/><path class="cls-22" d="M393.47,223.45H356.42c7.37-7.36,5.43-24.12,5.43-24.12h25.83s-1.3,16.76,6.06,24.12H356.69"/><rect class="cls-22" x="353.86" y="223.45" width="42.3" height="2.71" transform="translate(750.01 449.62) rotate(-180)"/><path class="cls-25" d="M387.68,199.33s-.14,2.74-.08,4.17H362.08s0-2.65-.23-4.17Z"/><path class="cls-22" d="M300.8,97.09V195.4c0,2.16,1.77,3.93,3.31,3.93H444.8c2.79,0,4.56-1.77,4.56-3.93V97.09a4,4,0,0,0-3.93-3.94H304.74A4,4,0,0,0,300.8,97.09ZM307,98.66h137.9v85H307Z"/><circle class="cls-26" cx="375.08" cy="191.98" r="4.73"/><path class="cls-27" d="M445.43,199.33,370.35,93.15H304.74s-3.94.46-3.94,3.94V195.4s.59,3.93,3.94,3.93Z"/><path class="cls-26" d="M445.89,184.68H306V97.63H445.89ZM308,182.62H443.84V99.68H308Z"/><rect class="cls-21" x="595.39" y="146.98" width="106.74" height="66.4"/><rect class="cls-28" x="635.81" y="188.78" width="5.37" height="17.33"/><rect class="cls-28" x="609.27" y="182.27" width="5.37" height="23.84"/><rect class="cls-28" x="622.54" y="191.33" width="5.37" height="14.78"/><rect class="cls-28" x="649.09" y="184.95" width="5.37" height="21.16"/><rect class="cls-28" x="662.36" y="192.37" width="5.37" height="13.74"/><rect class="cls-28" x="675.63" y="187.97" width="5.37" height="18.14"/><rect class="cls-28" x="688.9" y="193.63" width="5.37" height="12.48"/><path class="cls-29" d="M609.47,178.83c2.35-1.12,5.16.16,7.09,1.9s3.45,4,5.68,5.3a9,9,0,0,0,8.35.39,25.31,25.31,0,0,0,4.18-2.89,28.14,28.14,0,0,1,11.62-5.08,12.07,12.07,0,0,1,6.06.12c2.5.84,4.38,2.87,6.31,4.68s4.23,3.55,6.87,3.53,5-1.86,7.53-2.93a13.78,13.78,0,0,1,7.5-1,27.5,27.5,0,0,1,6.45,2.1l6.67,2.81-.72-1"/><text></text><polyline class="cls-30" points="605.65 176.13 605.65 208.95 697.96 208.95"/><text class="cls-31" transform="translate(599.23 201.08)">100kwh</text><text class="cls-31" transform="translate(599.23 193.21)">200kwh</text><text class="cls-31" transform="translate(599.23 185.34)">300kwh</text><text class="cls-31" transform="translate(599.23 177.47)">400kwh</text><text class="cls-31" transform="translate(599.23 208.95)">0 kwh</text><text class="cls-32" transform="translate(599.23 152.35)"><tspan class="cls-33">P</tspan><tspan x="1.61" y="0">ower Consumption History</tspan></text><text class="cls-34" transform="translate(599.75 158.22)">8/1/16<tspan x="0" y="3.53">8/2/16</tspan><tspan x="0" y="7.07">8/3/16</tspan></text><text class="cls-35" transform="translate(608.44 158.22)">avg. 330kwh<tspan x="0" y="3.53">avg. 220kwh</tspan><tspan x="0" y="7.07">avg.250kwh</tspan></text><text class="cls-34" transform="translate(623.06 158.07)">8/4/16<tspan x="0" y="3.53">8/5/16</tspan><tspan x="0" y="7.07">8/6/16</tspan></text><text class="cls-35" transform="translate(631.24 158.07)">avg.399kwh<tspan x="0" y="3.53">avg. 250kwh</tspan><tspan x="0" y="7.07">avg. 270kwh</tspan></text><path class="cls-36" d="M661.68,156.91h-.38v-.29h-.73v.29h-1.41v-.58a.53.53,0,0,0-.58.58h-.46v-.58a.54.54,0,0,0-.59.58h-.72l0,.24v-.23h-.08l-.34-4.09H656l-.15,4.09h-.1l-.32-4.09H655l-.16,4.09h-.1l-.31-4.09H654l-.16,4.09h-.16V154h-1.9v5.88h11.27Z"/><polygon class="cls-36" points="695.44 157.71 695.44 157.07 695.36 157.07 695.04 153.2 694.66 153.2 694.51 157.07 694.42 157.07 694.12 153.2 693.74 153.2 693.59 157.07 693.5 157.07 693.2 153.2 692.82 153.2 692.67 157.07 692.52 157.07 692.52 155.62 691.13 155.62 690.72 154.29 689.33 154.29 689.33 157.07 689.18 157.07 689.03 153.2 688.65 153.2 688.35 157.07 688.26 157.07 688.11 153.2 687.73 153.2 687.43 157.07 687.34 157.07 687.19 153.2 686.81 153.2 686.49 157.07 686.41 157.07 686.41 157.71 685.61 159.86 690.72 159.86 691.13 159.86 696.24 159.86 695.44 157.71"/><polygon class="cls-36" points="676.51 156.32 676.51 154.68 674.87 156.32 674.87 154.68 673.32 156.32 673.32 154.68 671.69 156.37 671.69 154.7 669.96 156.43 669.96 159.65 669.96 159.65 669.96 159.86 678.01 159.86 678.01 158.24 678.01 158.06 678.01 154.68 676.51 156.32"/><circle class="cls-37" cx="657.16" cy="164.69" r="3.08"/><circle class="cls-37" cx="690.93" cy="164.69" r="3.08"/><circle class="cls-37" cx="673.98" cy="164.69" r="3.08"/><text class="cls-38" transform="translate(655.45 165.28)">23%</text><text class="cls-38" transform="translate(672.2 165.28)">27%</text><text class="cls-38" transform="translate(689.24 165.28)">50%</text><path class="cls-26" d="M590.91,146.93v69.22a3.08,3.08,0,0,0,3.07,3.07H703.54a3.08,3.08,0,0,0,3.07-3.07V146.93a3.08,3.08,0,0,0-3.07-3.07H594A3.08,3.08,0,0,0,590.91,146.93Zm4.81,1.22H702.13v66.19H595.72Z"/><path class="cls-22" d="M573.16,217.8H725.61v5.87s.57,2.19-2.19,2.19H575.12a2,2,0,0,1-2-2Z"/><path class="cls-39" d="M658.61,217.8H639.46a2.17,2.17,0,0,0,2.15,2.15h15A1.89,1.89,0,0,0,658.61,217.8Z"/><rect class="cls-40" x="654.05" y="110.31" width="96.03" height="64.74" rx="2.74" ry="2.74"/><rect class="cls-21" x="648.86" y="107.94" width="98.85" height="64.74" rx="2.74" ry="2.74"/><path class="cls-41" d="M745.27,107.94h-94a2.4,2.4,0,0,0-2.44,2.37v8.28h76.93v7.56a2.4,2.4,0,0,0,2.44,2.37h19.48V110.31A2.4,2.4,0,0,0,745.27,107.94Z"/><path class="cls-21" d="M732.61,122.77H742a1,1,0,0,0,.84-1.46l-4.72-8a1,1,0,0,0-1.66,0l-4.72,8A1,1,0,0,0,732.61,122.77Zm5.16-3.32a.44.44,0,0,1-.88,0v-3.78a.44.44,0,0,1,.88,0Zm-.87,1.82a.44.44,0,0,1,.53-.53.43.43,0,0,1,.33.33.44.44,0,0,1-.53.53A.46.46,0,0,1,736.9,121.27Z"/><rect class="cls-22" x="658.19" y="125.1" width="50.62" height="3.85"/><rect class="cls-22" x="658.19" y="139.45" width="58.11" height="2.44"/><rect class="cls-22" x="658.19" y="145.78" width="73.46" height="2.44"/><rect class="cls-22" x="658.19" y="152.11" width="50.62" height="2.44"/><rect class="cls-22" x="658.19" y="158.44" width="61.76" height="2.44"/><rect class="cls-40" x="25.68" y="100.42" width="132.59" height="89.38" rx="3" ry="3"/><rect class="cls-21" x="22.55" y="95.24" width="131.66" height="90.25" rx="3" ry="3"/><path class="cls-24" d="M25.55,95.14H151.21a3,3,0,0,1,3,3v11.95a0,0,0,0,1,0,0H22.55a0,0,0,0,1,0,0V98.14A3,3,0,0,1,25.55,95.14Z"/><rect class="cls-24" x="31.45" y="134.79" width="4.66" height="39.2"/><rect class="cls-42" x="31.45" y="134.79" width="4.66" height="18.65"/><rect class="cls-24" x="43.19" y="142.1" width="4.66" height="31.89"/><rect class="cls-24" x="54.94" y="137.17" width="4.66" height="36.83"/><rect class="cls-24" x="66.68" y="132.01" width="4.66" height="41.99"/><rect class="cls-24" x="78.42" y="125.22" width="4.66" height="48.78"/><rect class="cls-24" x="90.16" y="142.1" width="4.66" height="31.89"/><rect class="cls-24" x="101.91" y="132.01" width="4.66" height="41.99"/><rect class="cls-42" x="43.19" y="142.1" width="4.66" height="13.93"/><rect class="cls-42" x="54.94" y="137.16" width="4.66" height="22.83"/><rect class="cls-42" x="66.68" y="132.01" width="4.66" height="19.14"/><rect class="cls-42" x="78.42" y="122.24" width="4.66" height="23.99"/><rect class="cls-42" x="90.16" y="142.1" width="4.66" height="13.48"/><rect class="cls-42" x="101.91" y="132.01" width="4.66" height="18.64"/><path class="cls-43" d="M121,171.34l8.59-11.09-14,.92A14.07,14.07,0,0,0,121,171.34Z"/><path class="cls-24" d="M129.59,160.25,121,171.34A14,14,0,1,0,134.3,147Z"/><path class="cls-42" d="M116.37,155.54a14.08,14.08,0,0,0-.78,5.63l14-.92L134.3,147A14,14,0,0,0,116.37,155.54Z"/><polygon class="cls-24" points="117.98 136.28 117.98 127.22 121.44 130.68 121.44 127.29 116.59 122.24 111.75 127.04 111.75 130.63 115.18 127.21 115.18 136.28 117.98 136.28"/><text class="cls-44" transform="translate(123.66 134.85)">15%</text><rect class="cls-45" width="750.09" height="226.16"/></g></g></svg>