<svg xmlns="http://www.w3.org/2000/svg" xmlns:xlink="http://www.w3.org/1999/xlink" viewBox="0 0 750.09 274.66"><defs><style>.cls-1,.cls-19,.cls-2,.cls-20,.cls-21,.cls-22,.cls-23,.cls-24,.cls-25,.cls-26,.cls-27,.cls-28{fill:none;}.cls-1,.cls-19,.cls-2,.cls-20,.cls-21,.cls-22,.cls-23,.cls-24,.cls-25,.cls-26,.cls-27{stroke:#fff;stroke-miterlimit:10;stroke-width:2px;}.cls-2{stroke-dasharray:4.82 4.82;}.cls-3{font-size:14.94px;fill:#fff;}.cls-10,.cls-11,.cls-12,.cls-13,.cls-14,.cls-3{font-family:SegoeUI-Bold, Segoe UI;}.cls-4{letter-spacing:-0.01em;}.cls-10,.cls-11,.cls-12,.cls-13,.cls-14,.cls-5,.cls-6{font-weight:700;}.cls-10,.cls-18,.cls-6{letter-spacing:0em;}.cls-7,.cls-8,.cls-9{font-family:SegoeUI, Segoe UI;}.cls-7{letter-spacing:-0.05em;}.cls-14,.cls-8{letter-spacing:0em;}.cls-11,.cls-39{letter-spacing:-0.07em;}.cls-13{letter-spacing:-0.02em;}.cls-15{letter-spacing:-0.01em;}.cls-16{letter-spacing:-0.04em;}.cls-17{letter-spacing:-0.04em;}.cls-19{stroke-dasharray:4.99 4.99;}.cls-20{stroke-dasharray:4.85 4.85;}.cls-21{stroke-dasharray:4.63 4.63;}.cls-22{stroke-dasharray:4.92 4.92;}.cls-23{stroke-dasharray:4.74 4.74;}.cls-24{stroke-dasharray:4.83 4.83;}.cls-25{stroke-dasharray:4.43 4.43;}.cls-26{stroke-dasharray:4.9 4.9;}.cls-27{stroke-dasharray:4.91 4.91;}.cls-29{fill:#636363;}.cls-30{fill:#787878;}.cls-31{fill:#404040;}.cls-32{fill:#898989;}.cls-33{fill:#616161;}.cls-34{fill:url(#linear-gradient);}.cls-35{fill:#009318;}.cls-36{fill:#ba1919;}.cls-37{fill:url(#linear-gradient-2);}.cls-38{fill:url(#linear-gradient-3);}.cls-40{letter-spacing:-0.01em;}.cls-41{letter-spacing:-0.07em;}</style><linearGradient id="linear-gradient" x1="303.9" y1="118.34" x2="360.23" y2="118.34" gradientUnits="userSpaceOnUse"><stop offset="0.11" stop-color="#9e9e9e"/><stop offset="0.84" stop-color="#c6c7c7"/></linearGradient><linearGradient id="linear-gradient-2" x1="342.99" y1="140.49" x2="399.32" y2="140.49" xlink:href="#linear-gradient"/><linearGradient id="linear-gradient-3" x1="384.33" y1="162.79" x2="440.66" y2="162.79" xlink:href="#linear-gradient"/></defs><title>diagram_energy_mid</title><g id="Layer_2" data-name="Layer 2"><g id="Layer_3" data-name="Layer 3"><line class="cls-1" x1="341.81" y1="87.63" x2="341.81" y2="85.21"/><polyline class="cls-2" points="341.81 80.39 341.81 54.04 341.81 5.71"/><line class="cls-1" x1="341.81" y1="3.3" x2="341.81" y2="0.89"/><text class="cls-3" transform="translate(93.86 29.95)"><tspan class="cls-4"><tspan class="cls-5">C</tspan><tspan class="cls-6" x="9.14" y="0">ONNECT </tspan><tspan class="cls-7" x="74.22" y="0">T</tspan><tspan class="cls-8" x="81.36" y="0">O BUILDING SYSTEMS</tspan></tspan><tspan class="cls-9"><tspan x="75.57" y="17.93">VIA </tspan><tspan class="cls-10" x="102.55" y="17.93">OPEN S</tspan><tspan class="cls-11" x="155.3" y="17.93">T</tspan><tspan class="cls-12" x="163.02" y="17.93">AN</tspan><tspan class="cls-13" x="185.32" y="17.93">D</tspan><tspan class="cls-14" x="196.11" y="17.93">ARD</tspan></tspan><tspan class="cls-5"><tspan x="141.86" y="35.85">P</tspan><tspan class="cls-15" x="151.04" y="35.85">R</tspan><tspan class="cls-16" x="160.64" y="35.85">O</tspan><tspan class="cls-17" x="171.38" y="35.85">T</tspan><tspan class="cls-18" x="179.57" y="35.85">O</tspan><tspan class="cls-4" x="190.9" y="35.85">C</tspan><tspan x="200.04" y="35.85">OLS</tspan></tspan></text><line class="cls-1" x1="698.84" x2="698.84" y2="2.41"/><line class="cls-19" x1="698.84" y1="7.4" x2="698.84" y2="54.76"/><polyline class="cls-1" points="698.84 57.25 698.84 59.67 696.43 59.67"/><line class="cls-20" x1="691.58" y1="59.67" x2="412.87" y2="59.67"/><polyline class="cls-1" points="410.44 59.67 408.03 59.67 408.03 62.08"/><line class="cls-21" x1="408.03" y1="66.71" x2="408.03" y2="82.9"/><line class="cls-1" x1="408.03" y1="85.21" x2="408.03" y2="87.63"/><line class="cls-1" x1="575.71" x2="575.71" y2="2.41"/><line class="cls-22" x1="575.71" y1="7.34" x2="575.71" y2="34.43"/><polyline class="cls-1" points="575.71 36.89 575.71 39.3 573.29 39.3"/><line class="cls-23" x1="568.55" y1="39.3" x2="390.63" y2="39.3"/><polyline class="cls-1" points="388.25 39.3 385.84 39.3 385.84 41.72"/><line class="cls-24" x1="385.84" y1="46.55" x2="385.84" y2="82.8"/><line class="cls-1" x1="385.84" y1="85.21" x2="385.84" y2="87.63"/><line class="cls-1" x1="461.61" y1="0.89" x2="461.65" y2="3.3"/><line class="cls-25" x1="461.72" y1="7.73" x2="461.83" y2="14.37"/><polyline class="cls-1" points="461.87 16.59 461.9 19 459.49 19"/><line class="cls-26" x1="454.59" y1="19" x2="368.82" y2="19"/><polyline class="cls-1" points="366.37 19 363.95 19 363.95 21.41"/><line class="cls-27" x1="363.95" y1="26.32" x2="363.95" y2="82.76"/><line class="cls-1" x1="363.95" y1="85.21" x2="363.95" y2="87.63"/><rect class="cls-28" width="750.09" height="274.66"/><polygon class="cls-29" points="362.63 111.66 361.37 112.38 361.37 200.82 362.63 200.04 362.63 111.66"/><polygon class="cls-30" points="361.37 112.38 340.62 100.32 341.65 99.68 362.63 111.66 361.37 112.38"/><polygon class="cls-31" points="340.62 100.32 361.37 112.38 361.37 200.82 340.62 188.28 340.62 100.32"/><polygon class="cls-32" points="360.23 199.68 360.23 112.95 322.5 134.52 322.5 221.46 360.23 199.68"/><polygon class="cls-33" points="322.5 221.46 303.9 210.41 303.9 123.68 322.5 134.52 322.5 221.46"/><polygon class="cls-34" points="360.23 112.95 341.36 102.16 303.9 123.68 322.5 134.52 360.23 112.95"/><polygon class="cls-31" points="357.08 119.65 357.08 121.89 325.79 140.05 325.79 137.85 357.08 119.65"/><polygon class="cls-31" points="357.01 123.73 357.01 125.97 325.72 144.13 325.72 141.93 357.01 123.73"/><polygon class="cls-31" points="357.05 127.81 357.05 130.06 325.75 148.21 325.75 146.01 357.05 127.81"/><polygon class="cls-31" points="356.97 131.89 356.97 134.14 325.68 152.29 325.68 150.09 356.97 131.89"/><polygon class="cls-31" points="357.01 135.97 357.01 138.22 325.72 156.37 325.72 154.17 357.01 135.97"/><polygon class="cls-31" points="356.94 140.05 356.94 142.3 325.64 160.45 325.64 158.25 356.94 140.05"/><polygon class="cls-31" points="356.94 150.25 325.79 168.46 325.79 179.84 356.94 161.68 356.94 150.25"/><path class="cls-35" d="M329.13,174.82a1.21,1.21,0,0,1-.66,1c-.36.16-.64,0-.64-.36a1.2,1.2,0,0,1,.64-1C328.83,174.3,329.13,174.45,329.13,174.82Z"/><path class="cls-35" d="M331.83,173.35a1.2,1.2,0,0,1-.67,1c-.35.16-.64,0-.64-.36a1.22,1.22,0,0,1,.64-1C331.53,172.82,331.83,173,331.83,173.35Z"/><path class="cls-36" d="M334.72,171.83a1.22,1.22,0,0,1-.67,1c-.36.16-.64,0-.64-.36a1.2,1.2,0,0,1,.64-1C334.41,171.31,334.72,171.46,334.72,171.83Z"/><polygon class="cls-31" points="323.75 222.19 323.75 133.81 302.77 121.83 302.77 209.75 323.75 222.19"/><polygon class="cls-29" points="323.75 133.81 322.5 134.52 322.5 222.96 323.75 222.19 323.75 133.81"/><polygon class="cls-30" points="322.5 134.52 301.74 122.47 302.77 121.83 323.75 133.81 322.5 134.52"/><polygon class="cls-31" points="301.74 122.47 322.5 134.52 322.5 222.96 301.74 210.42 301.74 122.47"/><polygon class="cls-29" points="401.72 133.81 400.46 134.52 400.46 222.96 401.72 222.19 401.72 133.81"/><polygon class="cls-30" points="400.46 134.52 379.7 122.47 380.74 121.83 401.72 133.81 400.46 134.52"/><polygon class="cls-31" points="379.7 122.47 400.46 134.52 400.46 222.96 379.7 210.42 379.7 122.47"/><polygon class="cls-32" points="399.32 221.82 399.32 135.09 361.58 156.67 361.58 243.61 399.32 221.82"/><polygon class="cls-33" points="361.58 243.61 342.99 232.56 342.99 145.83 361.58 156.67 361.58 243.61"/><polygon class="cls-37" points="399.32 135.09 380.45 124.3 342.99 145.83 361.58 156.67 399.32 135.09"/><polygon class="cls-31" points="396.17 141.79 396.17 144.04 364.88 162.2 364.88 159.99 396.17 141.79"/><polygon class="cls-31" points="396.1 145.87 396.1 148.12 364.81 166.28 364.8 164.07 396.1 145.87"/><polygon class="cls-31" points="396.13 149.95 396.13 152.2 364.84 170.36 364.84 168.15 396.13 149.95"/><polygon class="cls-31" points="396.06 154.03 396.06 156.28 364.77 174.44 364.77 172.23 396.06 154.03"/><polygon class="cls-31" points="396.1 158.12 396.1 160.36 364.81 178.52 364.8 176.31 396.1 158.12"/><polygon class="cls-31" points="396.02 162.2 396.02 164.44 364.73 182.6 364.73 180.4 396.02 162.2"/><polygon class="cls-31" points="396.02 172.4 364.88 190.61 364.88 201.99 396.02 183.82 396.02 172.4"/><path class="cls-35" d="M368.22,197a1.2,1.2,0,0,1-.67,1c-.35.16-.64,0-.64-.36a1.24,1.24,0,0,1,.64-1C367.92,196.44,368.22,196.6,368.22,197Z"/><path class="cls-35" d="M370.92,195.5a1.21,1.21,0,0,1-.67,1c-.36.17-.64,0-.64-.35a1.22,1.22,0,0,1,.64-1C370.61,195,370.92,195.12,370.92,195.5Z"/><path class="cls-36" d="M373.8,194a1.21,1.21,0,0,1-.66,1c-.36.16-.64,0-.64-.36a1.22,1.22,0,0,1,.64-1C373.5,193.45,373.8,193.61,373.8,194Z"/><polygon class="cls-31" points="362.84 244.33 362.84 155.95 341.86 143.97 341.86 231.9 362.84 244.33"/><polygon class="cls-29" points="362.84 155.95 361.58 156.67 361.58 245.11 362.84 244.33 362.84 155.95"/><polygon class="cls-30" points="361.58 156.67 340.83 144.61 341.86 143.97 362.84 155.95 361.58 156.67"/><polygon class="cls-31" points="340.83 144.61 361.58 156.67 361.58 245.11 340.83 232.57 340.83 144.61"/><polygon class="cls-29" points="443.06 156.11 441.8 156.82 441.8 245.26 443.06 244.49 443.06 156.11"/><polygon class="cls-30" points="441.8 156.82 421.05 144.77 422.08 144.13 443.06 156.11 441.8 156.82"/><polygon class="cls-31" points="421.05 144.77 441.8 156.82 441.8 245.26 421.05 232.72 421.05 144.77"/><polygon class="cls-32" points="440.66 244.12 440.66 157.39 402.93 178.97 402.93 265.91 440.66 244.12"/><polygon class="cls-33" points="402.93 265.91 384.33 254.86 384.33 168.13 402.93 178.97 402.93 265.91"/><polygon class="cls-38" points="440.66 157.39 421.8 146.6 384.33 168.13 402.93 178.97 440.66 157.39"/><polygon class="cls-31" points="437.51 164.09 437.51 166.34 406.22 184.5 406.22 182.29 437.51 164.09"/><polygon class="cls-31" points="437.44 168.18 437.44 170.42 406.15 188.58 406.15 186.37 437.44 168.18"/><polygon class="cls-31" points="437.48 172.25 437.48 174.5 406.19 192.66 406.19 190.45 437.48 172.25"/><polygon class="cls-31" points="437.4 176.34 437.41 178.58 406.11 196.74 406.11 194.53 437.4 176.34"/><polygon class="cls-31" points="437.44 180.42 437.44 182.66 406.15 200.82 406.15 198.62 437.44 180.42"/><polygon class="cls-31" points="437.37 184.5 437.37 186.74 406.08 204.9 406.07 202.7 437.37 184.5"/><polygon class="cls-31" points="437.37 194.7 406.22 212.91 406.22 224.29 437.37 206.13 437.37 194.7"/><path class="cls-35" d="M409.56,219.27a1.21,1.21,0,0,1-.66,1c-.36.16-.64,0-.64-.36a1.19,1.19,0,0,1,.64-1C409.26,218.74,409.56,218.9,409.56,219.27Z"/><path class="cls-35" d="M412.26,217.8a1.19,1.19,0,0,1-.67,1c-.35.17-.64,0-.64-.35a1.24,1.24,0,0,1,.64-1C412,217.27,412.26,217.42,412.26,217.8Z"/><path class="cls-36" d="M415.15,216.28a1.2,1.2,0,0,1-.67,1c-.35.16-.64,0-.64-.36a1.21,1.21,0,0,1,.64-1C414.85,215.75,415.15,215.91,415.15,216.28Z"/><polygon class="cls-31" points="404.19 266.63 404.19 178.25 383.2 166.28 383.2 254.19 404.19 266.63"/><polygon class="cls-29" points="404.19 178.25 402.93 178.97 402.93 267.41 404.19 266.63 404.19 178.25"/><polygon class="cls-30" points="402.93 178.97 382.17 166.91 383.2 166.28 404.19 178.25 402.93 178.97"/><polygon class="cls-31" points="382.17 166.91 402.93 178.97 402.93 267.41 382.17 254.87 382.17 166.91"/><text class="cls-3" transform="translate(456.4 171.69)"><tspan class="cls-5">SECURE <tspan class="cls-4" x="58.28" y="0">C</tspan><tspan class="cls-18" x="67.42" y="0">OMMUNIC</tspan><tspan class="cls-39" x="144" y="0">A</tspan><tspan x="153.47" y="0">TION</tspan></tspan><tspan class="cls-9"><tspan x="0" y="17.93">WITH ENE</tspan><tspan class="cls-40" x="66.75" y="17.93">R</tspan><tspan x="75.47" y="17.93">GY APPLIC</tspan><tspan class="cls-41" x="144.7" y="17.93">A</tspan><tspan x="153.26" y="17.93">TION</tspan><tspan x="0" y="35.85">SERVERS</tspan></tspan></text></g></g></svg>