<svg xmlns="http://www.w3.org/2000/svg" xmlns:xlink="http://www.w3.org/1999/xlink" viewBox="0 0 751.09 190.19"><defs><style>.cls-1{fill:#767676;}.cls-2{fill:#616161;}.cls-3{fill:url(#linear-gradient);}.cls-4{fill:#898989;}.cls-5{fill:url(#linear-gradient-2);}.cls-6{fill:#c8eced;}.cls-7{fill:url(#linear-gradient-3);}.cls-8{fill:url(#linear-gradient-4);}.cls-9{fill:url(#linear-gradient-5);}.cls-10{fill:url(#linear-gradient-6);}.cls-11{fill:url(#linear-gradient-7);}.cls-12{fill:url(#linear-gradient-8);}.cls-13{fill:url(#linear-gradient-9);}.cls-14,.cls-20{font-size:14.94px;}.cls-14,.cls-20,.cls-54{fill:#fff;}.cls-14{font-family:SegoeUI-Bold, Segoe UI;}.cls-15,.cls-16{font-weight:700;}.cls-16{letter-spacing:-0.04em;}.cls-17,.cls-18,.cls-19,.cls-20{font-family:SegoeUI, Segoe UI;}.cls-18{letter-spacing:-0.01em;}.cls-19{letter-spacing:-0.03em;}.cls-21{letter-spacing:0.02em;}.cls-22{letter-spacing:-0.04em;}.cls-23{letter-spacing:0em;}.cls-24{letter-spacing:-0.07em;}.cls-25{fill:#4d4d4d;}.cls-26{fill:gray;}.cls-27{fill:url(#linear-gradient-10);}.cls-28,.cls-30{fill:#828282;}.cls-28,.cls-29{opacity:0.5;}.cls-29{fill:#454545;}.cls-31,.cls-32{fill:#ffc34e;}.cls-31{opacity:0.7;}.cls-33{fill:#ffda62;}.cls-34{fill:#949494;}.cls-35{fill:#adadad;}.cls-36{fill:#aeaeae;}.cls-37{fill:#194f90;}.cls-38{fill:#858585;}.cls-39,.cls-53,.cls-55{fill:none;}.cls-39{stroke:#aeaeae;stroke-width:0.1px;}.cls-39,.cls-53{stroke-miterlimit:10;}.cls-40{fill:#ccc;}.cls-41{fill:#d3d3d3;}.cls-42{fill:#b3b3b3;}.cls-43{fill:#a4a4a4;}.cls-44{fill:#999;}.cls-45{fill:#787878;}.cls-46{fill:#d47777;}.cls-47{fill:#00afd6;}.cls-48{fill:#666;}.cls-49{fill:#4e494a;}.cls-50{fill:#e3e3e3;}.cls-51{fill:#bfbfbf;}.cls-52{fill:#d9d9d9;}.cls-53{stroke:#fff;stroke-width:2px;}</style><linearGradient id="linear-gradient" x1="49.3" y1="133.96" x2="100.31" y2="67.74" gradientUnits="userSpaceOnUse"><stop offset="0.11" stop-color="#9e9e9e"/><stop offset="0.54" stop-color="#c6c7c7"/><stop offset="1" stop-color="#a1a1a1"/></linearGradient><linearGradient id="linear-gradient-2" x1="104.67" y1="66.51" x2="141.62" y2="41.73" gradientUnits="userSpaceOnUse"><stop offset="0.11" stop-color="#9e9e9e"/><stop offset="0.84" stop-color="#c6c7c7"/></linearGradient><linearGradient id="linear-gradient-3" x1="135.95" y1="72.7" x2="161.25" y2="72.7" xlink:href="#linear-gradient-2"/><linearGradient id="linear-gradient-4" x1="136.37" y1="80.15" x2="161.11" y2="80.15" xlink:href="#linear-gradient-2"/><linearGradient id="linear-gradient-5" x1="135.95" y1="82.81" x2="161.25" y2="82.81" xlink:href="#linear-gradient-2"/><linearGradient id="linear-gradient-6" x1="136.37" y1="90.26" x2="161.11" y2="90.26" xlink:href="#linear-gradient-2"/><linearGradient id="linear-gradient-7" x1="135.95" y1="92.92" x2="161.25" y2="92.92" xlink:href="#linear-gradient-2"/><linearGradient id="linear-gradient-8" x1="136.37" y1="100.37" x2="161.11" y2="100.37" xlink:href="#linear-gradient-2"/><linearGradient id="linear-gradient-9" x1="80.17" y1="132.47" x2="89.56" y2="132.47" xlink:href="#linear-gradient"/><linearGradient id="linear-gradient-10" x1="476.23" y1="104.91" x2="452.01" y2="111.78" gradientUnits="userSpaceOnUse"><stop offset="0" stop-color="#646768"/><stop offset="1" stop-color="#2c2a29"/></linearGradient></defs><title>diagram_energy_top</title><g id="Layer_2" data-name="Layer 2"><g id="Layer_3" data-name="Layer 3"><polygon class="cls-1" points="132.06 77 132.06 95.77 67.11 133.26 67.11 152.01 164.53 96.06 164.57 58.25 132.06 77"/><polygon class="cls-2" points="67.11 152.01 18.41 123.89 18.41 104.82 67.11 133.26 67.11 152.01"/><polygon class="cls-3" points="18.41 104.82 83.35 67.65 132.06 95.77 67.11 133.26 18.41 104.82"/><polygon class="cls-2" points="132.06 95.77 83.35 67.65 83.35 48.9 132.06 77 132.06 95.77"/><polygon class="cls-4" points="21.82 104.91 83.35 69.65 128.65 95.8 67.11 131.35 21.82 104.91"/><polygon class="cls-5" points="83.35 48.9 115.84 30.16 164.57 58.25 132.06 77 83.35 48.9"/><polygon class="cls-6" points="136.12 80.18 136.12 87.55 160.99 72.75 160.99 65.39 136.12 80.18"/><polygon class="cls-2" points="135.95 80.08 136.37 80.33 136.37 87.83 135.95 87.59 135.95 80.08"/><polygon class="cls-7" points="135.95 80.08 160.81 65.06 161.25 65.31 136.37 80.33 135.95 80.08"/><polygon class="cls-2" points="161.11 65.39 161.11 72.75 160.87 72.61 160.87 65.53 161.11 65.39"/><polygon class="cls-8" points="136.37 87.68 161.11 72.75 160.87 72.61 136.37 87.41 136.37 87.68"/><path class="cls-1" d="M136.37,80.33v7.5l24.88-15v-7.5Zm24.74-7.58L136.5,87.61V80.4l24.61-14.8Z"/><polygon class="cls-6" points="136.12 90.29 136.12 97.67 160.99 82.86 160.99 75.51 136.12 90.29"/><polygon class="cls-2" points="135.95 90.2 136.37 90.44 136.37 97.95 135.95 97.7 135.95 90.2"/><polygon class="cls-9" points="135.95 90.2 160.81 75.18 161.25 75.43 136.37 90.44 135.95 90.2"/><polygon class="cls-2" points="161.11 75.51 161.11 82.86 160.87 82.72 160.87 75.65 161.11 75.51"/><polygon class="cls-10" points="136.37 97.79 161.11 82.86 160.87 82.72 136.37 97.52 136.37 97.79"/><path class="cls-1" d="M136.37,90.44V98l24.88-15v-7.5Zm24.74-7.58L136.5,97.72V90.51l24.61-14.8Z"/><polygon class="cls-6" points="136.12 100.41 136.12 107.78 160.99 92.97 160.99 85.62 136.12 100.41"/><polygon class="cls-2" points="135.95 100.31 136.37 100.55 136.37 108.06 135.95 107.82 135.95 100.31"/><polygon class="cls-11" points="135.95 100.31 160.81 85.29 161.25 85.54 136.37 100.55 135.95 100.31"/><polygon class="cls-2" points="161.11 85.62 161.11 92.97 160.87 92.83 160.87 85.76 161.11 85.62"/><polygon class="cls-12" points="136.37 107.91 161.11 92.97 160.87 92.83 136.37 107.63 136.37 107.91"/><path class="cls-1" d="M136.37,100.55v7.51l24.88-15v-7.5ZM161.11,93,136.5,107.83v-7.2l24.61-14.8Z"/><polygon class="cls-4" points="85.86 48.9 115.82 31.62 162.04 58.27 132.06 75.56 85.86 48.9"/><polygon class="cls-2" points="115.82 31.62 115.82 33.6 160.28 59.29 162.04 58.27 115.82 31.62"/><polygon class="cls-1" points="85.86 48.9 115.82 31.62 115.82 33.6 87.36 49.77 85.86 48.9"/><polygon class="cls-2" points="83.35 69.65 83.35 71.77 126.91 96.8 128.65 95.8 83.35 69.65"/><polygon class="cls-1" points="21.82 104.91 83.35 69.65 83.35 71.77 23.41 105.84 21.82 104.91"/><polygon class="cls-2" points="46.07 100.22 75.2 117.04 75.19 105.84 46.07 89.01 46.07 100.22"/><polyline class="cls-1" points="75.2 117.04 84.91 111.44 75.19 105.84"/><polygon class="cls-2" points="34.71 106.92 63.84 123.73 63.83 112.53 34.71 95.7 34.71 106.92"/><polyline class="cls-1" points="63.84 123.73 73.55 118.13 63.83 112.53"/><polygon class="cls-2" points="56.95 93.87 86.08 110.69 86.07 99.48 56.95 82.66 56.95 93.87"/><polyline class="cls-1" points="86.08 110.69 95.79 105.08 86.07 99.48"/><polygon class="cls-2" points="67.8 87.54 96.93 104.36 96.92 93.16 67.8 76.33 67.8 87.54"/><polyline class="cls-1" points="96.93 104.36 106.64 98.75 96.92 93.16"/><polygon class="cls-6" points="80.33 135.05 80.33 144.42 89.12 139.38 89.12 130.03 80.33 135.05"/><polygon class="cls-2" points="80.17 134.95 80.59 135.2 80.59 144.76 80.17 144.52 80.17 134.95"/><polygon class="cls-13" points="80.17 134.95 89.12 129.74 89.56 129.99 80.59 135.2 80.17 134.95"/><polygon class="cls-2" points="89.42 130.27 89.42 139.5 89.12 139.38 89.12 130.45 89.42 130.27"/><polygon class="cls-1" points="80.59 135.2 80.59 144.76 80.72 144.68 80.72 135.27 89.42 130.27 89.42 139.5 89.56 139.41 89.56 129.99 80.59 135.2"/><polyline class="cls-2" points="85.31 132.64 85.31 142.04 84.89 141.8 84.89 132.88 85.31 132.64"/><polygon class="cls-1" points="85.44 132.56 85.44 141.97 85.31 142.04 85.31 132.64 85.44 132.56"/><text class="cls-14" transform="translate(397.41 13.74)"><tspan class="cls-15">MONI</tspan><tspan class="cls-16" x="42.16" y="0">T</tspan><tspan class="cls-15" x="50.36" y="0">OR </tspan><tspan class="cls-17" x="75.57" y="0">ENE</tspan><tspan class="cls-18" x="101.86" y="0">R</tspan><tspan class="cls-17" x="110.58" y="0">GY </tspan><tspan class="cls-19" x="133.18" y="0">C</tspan><tspan class="cls-17" x="142.03" y="0">ONSUMPTION</tspan></text><text class="cls-20" transform="translate(329.69 161.89)">GAS</text><text class="cls-20" transform="translate(425.34 161.89)">ELECTRICI<tspan class="cls-21" x="65.36" y="0">T</tspan><tspan x="73.48" y="0">Y</tspan></text><text class="cls-20" transform="translate(658.57 161.92)">RENE<tspan class="cls-22" x="35.23" y="0">W</tspan><tspan class="cls-23" x="48.6" y="0">ABLE</tspan></text><text class="cls-20" transform="translate(550.79 161.89)"><tspan class="cls-22">W</tspan><tspan class="cls-24" x="13.37" y="0">A</tspan><tspan x="21.94" y="0">TER</tspan></text><path class="cls-25" d="M464.36,130.21a7.39,7.39,0,0,0,3.75-.88,4.26,4.26,0,0,0,1.27-1.14l-9.77,0a4,4,0,0,0,1.11,1.09A6.59,6.59,0,0,0,464.36,130.21Z"/><path class="cls-26" d="M454.89,124.66a7.57,7.57,0,0,0,2.23,2.29,12.79,12.79,0,0,0,7.24,1.94A13.67,13.67,0,0,0,471.8,127a7.13,7.13,0,0,0,2.23-2.31Z"/><path class="cls-25" d="M473,122.52a18.32,18.32,0,0,0-17.22,0c-2.21-1.33-2.36-1.23-3.33-3.15,0,0,0,.71.09,1.49a3.68,3.68,0,0,0,.42,1.33c1.55,3,6,5.08,11.43,5.08,5.58,0,10.23-2,11.68-5.13a4.64,4.64,0,0,0,.3-1.22,8.51,8.51,0,0,0,0-1.72C475.69,121.17,475.18,121.19,473,122.52Z"/><path class="cls-26" d="M473,120.73c-2.21-1.33-15-1.33-17.22,0-2.21-1.33-1.78-.72-3-2.2,0,0-.48.61-.33,1.07,1.12,3.36,6,5.88,11.91,5.88s11.05-2.65,12-6.13a2.21,2.21,0,0,0-.29-1.12C475,119.88,475.18,119.4,473,120.73Z"/><path class="cls-25" d="M473.19,118.83a19.21,19.21,0,0,0-17.66,0c-2.25-1.33-2.41-1.24-3.4-3.15a5.47,5.47,0,0,0,.36,2.85c1.59,3,6.33,5,11.87,5,5.73,0,10.54-2.27,12-5.35a6.75,6.75,0,0,0,.31-2.73C476,117.47,475.45,117.5,473.19,118.83Z"/><path class="cls-26" d="M473.19,117c-2.26-1.33-15.4-1.33-17.66,0-2.25-1.33-1.82-.72-3-2.2,0,0-.49.61-.33,1.08,1.14,3.35,6.15,5.87,12.2,5.87s11.34-2.65,12.32-6.12a2.13,2.13,0,0,0-.29-1.13C475.22,116.13,475.45,115.65,473.19,117Z"/><path class="cls-25" d="M473.19,115.08a19.21,19.21,0,0,0-17.66,0c-2.25-1.33-3.65-3.16-3.65-5.18v2.6c0,4,5.59,7.33,12.48,7.33s12.49-3.28,12.49-7.33v-2.6C476.85,111.92,475.45,113.75,473.19,115.08Z"/><path class="cls-26" d="M473.19,113.46a19.21,19.21,0,0,0-17.66,0c-2.25-1.33-3.65-3.16-3.65-5.19v2.61c0,4.05,5.59,7.33,12.48,7.33s12.49-3.28,12.49-7.33v-2.61C476.85,110.3,475.45,112.13,473.19,113.46Z"/><ellipse class="cls-27" cx="464.36" cy="108.27" rx="12.49" ry="7.33"/><polygon class="cls-28" points="459.77 105.97 462 107.45 469.03 103.29 466.62 101.94 459.77 105.97"/><polygon class="cls-29" points="459.77 109.73 462 111.22 469.03 107.06 469.03 103.29 462 107.45 459.77 105.97 459.77 109.73"/><path class="cls-30" d="M462.34,92.7a54.72,54.72,0,0,0-2.79-10l-1.81-.36.07.65a49.06,49.06,0,0,1,3,9.81c.95,5,.54,13.31.54,13.31,0,.22.35.39.78.39s.77-.17.77-.39A101.73,101.73,0,0,0,462.34,92.7Z"/><path class="cls-30" d="M470.25,77.51l-.6-.06S467.58,84.78,467,89a124.78,124.78,0,0,0-.78,14.09c0,.21.35.38.78.38s.78-.17.78-.38c0,0,.1-9.65.69-13.9s2.89-12.89,2.89-12.89l-.17-.8Z"/><path class="cls-31" d="M450.59,109.62c1.09,2.06,4.71,6.86,13.36,6.85s12.44-3.64,14.34-6.85-.32-6.18,4.54-12.51,6.49-9.89,7.91-16.57c1.17-5.51-.42-15.35-6.75-21.74s-13.67-7.54-20.11-7.54-14.77,2.32-20.1,8.81a26.74,26.74,0,0,0-5.91,18.31c.21,4.59,2.89,11.79,7.81,18.47C450.77,103.75,448.69,106.06,450.59,109.62Z"/><path class="cls-32" d="M471.66,75.19s-.26-.52-.5-.47c-.53.1-.92,2.34-1.29,2.56s-.63-2.21-1.2-1.92-.51,2.53-.93,2.77-.89-1.91-1.36-1.71-.41,2.6-.76,2.78-.77-2-1.24-1.74c-.65.31-.45,2.59-1,2.88-.38.21-.68-2.06-1.2-1.77s-.47,2.53-1,2.9-.8-2.07-1.37-1.67-.49,2.58-.76,2.7S458.37,81,457.72,81c-.21,0-.32.8-.32.8l.41,1.16s-.05-.37.14-.43S459,84.12,459.31,84s.21-2.33.8-2.7c.36-.22.83,2,1.35,1.68s.55-2.7,1-2.91.68,2.12,1.18,1.78.34-2.57,1-2.88c.47-.23.68,2,1.23,1.73s.4-2.61.74-2.78.89,2,1.34,1.71.52-2.5.91-2.77.44,2.2,1.05,1.94c.43-.2.8-2,1.18-2.7.15-.27.3.16.3.16Z"/><path class="cls-33" d="M461.57,54.34V68.22s-5.64.34-11.8,5.18a22.84,22.84,0,0,0-7.35,10.65,23.91,23.91,0,0,1-1.23-11.55A21.29,21.29,0,0,1,451.8,57.31C457.63,54,461.57,54.34,461.57,54.34Z"/><ellipse class="cls-34" cx="739.06" cy="141.56" rx="1.87" ry="1.24"/><rect class="cls-34" x="737.19" y="89.9" width="3.73" height="51.66" transform="translate(1478.11 231.46) rotate(-180)"/><ellipse class="cls-34" cx="663.9" cy="99.13" rx="1.87" ry="1.24"/><rect class="cls-34" x="662.03" y="47.47" width="3.73" height="51.66" transform="translate(1327.8 146.61) rotate(-180)"/><polygon class="cls-35" points="656.03 79.22 735.84 125.02 751.09 68.45 671.29 22.65 656.03 79.22"/><polygon class="cls-36" points="652.22 82.39 731.68 129.45 747.79 69.72 668.33 22.65 652.22 82.39"/><polygon class="cls-37" points="724.11 72.08 742.78 82.79 746.35 69.56 727.68 58.84 724.11 72.08"/><polygon class="cls-37" points="720.24 86.65 738.91 97.36 742.48 84.13 723.81 73.41 720.24 86.65"/><polygon class="cls-37" points="716.33 101.22 735 111.94 738.57 98.7 719.89 87.99 716.33 101.22"/><polygon class="cls-37" points="704.52 60.88 723.19 71.59 726.75 58.36 708.08 47.65 704.52 60.88"/><polygon class="cls-37" points="700.61 75.37 719.28 86.08 722.85 72.85 704.18 62.13 700.61 75.37"/><polygon class="cls-37" points="696.66 89.92 715.33 100.63 718.89 87.4 700.22 76.69 696.66 89.92"/><polygon class="cls-37" points="685.01 49.66 703.68 60.37 707.25 47.14 688.58 36.42 685.01 49.66"/><polygon class="cls-37" points="681.14 64.15 699.81 74.86 703.38 61.63 684.71 50.91 681.14 64.15"/><polygon class="cls-37" points="677.18 78.64 695.85 89.36 699.42 76.12 680.75 65.41 677.18 78.64"/><polygon class="cls-37" points="665.51 38.5 684.18 49.21 687.75 35.98 669.08 25.26 665.51 38.5"/><polygon class="cls-37" points="661.64 52.87 680.31 63.59 683.88 50.35 665.21 39.64 661.64 52.87"/><polygon class="cls-37" points="657.57 67.31 676.25 78.03 679.81 64.79 661.14 54.08 657.57 67.31"/><polygon class="cls-37" points="712.27 115.78 730.94 126.49 734.51 113.26 715.84 102.55 712.27 115.78"/><polygon class="cls-37" points="692.71 104.45 711.38 115.17 714.95 101.93 696.28 91.22 692.71 104.45"/><polygon class="cls-37" points="673.17 93.07 691.84 103.78 695.41 90.55 676.74 79.83 673.17 93.07"/><polygon class="cls-37" points="653.61 81.74 672.28 92.45 675.85 79.22 657.18 68.5 653.61 81.74"/><polygon class="cls-38" points="751.09 68.45 748.13 68.45 731.68 129.45 734.63 129.45 751.09 68.45"/><polygon class="cls-38" points="748.13 68.45 668.33 22.65 671.29 22.65 751.09 68.45 748.13 68.45"/><polygon class="cls-39" points="742.48 84.11 723.83 73.41 720.25 86.64 738.91 97.32 742.48 84.11"/><line class="cls-39" x1="739.8" y1="94.02" x2="721.14" y2="83.33"/><line class="cls-39" x1="740.69" y1="90.71" x2="722.04" y2="80.03"/><line class="cls-39" x1="741.58" y1="87.41" x2="722.93" y2="76.72"/><line class="cls-39" x1="726.49" y1="74.94" x2="722.92" y2="88.17"/><line class="cls-39" x1="729.16" y1="76.47" x2="725.59" y2="89.69"/><line class="cls-39" x1="731.82" y1="78" x2="728.25" y2="91.22"/><line class="cls-39" x1="734.49" y1="79.53" x2="730.92" y2="92.75"/><line class="cls-39" x1="737.15" y1="81.05" x2="733.58" y2="94.27"/><line class="cls-39" x1="739.81" y1="82.58" x2="736.24" y2="95.79"/><polygon class="cls-39" points="738.57 98.71 719.92 88.02 716.34 101.25 735 111.92 738.57 98.71"/><line class="cls-39" x1="735.89" y1="108.62" x2="717.24" y2="97.94"/><line class="cls-39" x1="736.78" y1="105.32" x2="718.13" y2="94.63"/><line class="cls-39" x1="737.68" y1="102.02" x2="719.02" y2="91.32"/><line class="cls-39" x1="722.58" y1="89.55" x2="719.01" y2="102.77"/><line class="cls-39" x1="725.25" y1="91.08" x2="721.68" y2="104.3"/><line class="cls-39" x1="727.92" y1="92.61" x2="724.34" y2="105.83"/><line class="cls-39" x1="730.58" y1="94.13" x2="727.01" y2="107.35"/><line class="cls-39" x1="733.24" y1="95.66" x2="729.67" y2="108.88"/><line class="cls-39" x1="735.91" y1="97.19" x2="732.34" y2="110.4"/><polygon class="cls-39" points="734.5 113.28 715.85 102.58 712.27 115.81 730.93 126.49 734.5 113.28"/><line class="cls-39" x1="731.82" y1="123.18" x2="713.17" y2="112.5"/><line class="cls-39" x1="732.71" y1="119.88" x2="714.06" y2="109.19"/><line class="cls-39" x1="733.61" y1="116.58" x2="714.95" y2="105.89"/><line class="cls-39" x1="718.52" y1="104.11" x2="714.94" y2="117.33"/><line class="cls-39" x1="721.18" y1="105.64" x2="717.61" y2="118.86"/><line class="cls-39" x1="723.85" y1="107.17" x2="720.27" y2="120.39"/><line class="cls-39" x1="726.51" y1="108.69" x2="722.94" y2="121.91"/><line class="cls-39" x1="729.17" y1="110.22" x2="725.6" y2="123.44"/><line class="cls-39" x1="731.84" y1="111.75" x2="728.27" y2="124.96"/><polygon class="cls-39" points="714.95 101.93 696.3 91.24 692.72 104.47 711.38 115.14 714.95 101.93"/><line class="cls-39" x1="712.27" y1="111.84" x2="693.62" y2="101.16"/><line class="cls-39" x1="713.16" y1="108.54" x2="694.51" y2="97.85"/><line class="cls-39" x1="714.05" y1="105.24" x2="695.4" y2="94.54"/><line class="cls-39" x1="698.96" y1="92.77" x2="695.39" y2="105.99"/><line class="cls-39" x1="701.63" y1="94.3" x2="698.06" y2="107.52"/><line class="cls-39" x1="704.3" y1="95.83" x2="700.72" y2="109.05"/><line class="cls-39" x1="706.96" y1="97.35" x2="703.39" y2="110.57"/><line class="cls-39" x1="709.62" y1="98.88" x2="706.05" y2="112.1"/><line class="cls-39" x1="712.29" y1="100.41" x2="708.72" y2="113.62"/><polygon class="cls-39" points="695.4 90.57 676.75 79.87 673.17 93.1 691.83 103.78 695.4 90.57"/><line class="cls-39" x1="692.72" y1="100.48" x2="674.07" y2="89.79"/><line class="cls-39" x1="693.61" y1="97.17" x2="674.96" y2="86.49"/><line class="cls-39" x1="694.5" y1="93.87" x2="675.85" y2="83.18"/><line class="cls-39" x1="679.41" y1="81.4" x2="675.84" y2="94.63"/><line class="cls-39" x1="682.08" y1="82.93" x2="678.51" y2="96.15"/><line class="cls-39" x1="684.75" y1="84.46" x2="681.17" y2="97.68"/><line class="cls-39" x1="687.41" y1="85.99" x2="683.84" y2="99.21"/><line class="cls-39" x1="690.07" y1="87.52" x2="686.5" y2="100.73"/><line class="cls-39" x1="692.74" y1="89.04" x2="689.17" y2="102.26"/><polygon class="cls-39" points="675.85 79.23 657.2 68.54 653.62 81.77 672.28 92.45 675.85 79.23"/><line class="cls-39" x1="673.17" y1="89.14" x2="654.51" y2="78.46"/><line class="cls-39" x1="674.06" y1="85.84" x2="655.41" y2="75.15"/><line class="cls-39" x1="674.95" y1="82.54" x2="656.3" y2="71.84"/><line class="cls-39" x1="659.86" y1="70.07" x2="656.29" y2="83.29"/><line class="cls-39" x1="662.53" y1="71.6" x2="658.96" y2="84.82"/><line class="cls-39" x1="665.19" y1="73.13" x2="661.62" y2="86.35"/><line class="cls-39" x1="667.86" y1="74.65" x2="664.29" y2="87.87"/><line class="cls-39" x1="670.52" y1="76.18" x2="666.95" y2="89.4"/><line class="cls-39" x1="673.18" y1="77.71" x2="669.61" y2="90.92"/><polygon class="cls-39" points="718.9 87.39 700.25 76.69 696.67 89.92 715.33 100.6 718.9 87.39"/><line class="cls-39" x1="716.22" y1="97.3" x2="697.57" y2="86.61"/><line class="cls-39" x1="717.11" y1="94" x2="698.46" y2="83.31"/><line class="cls-39" x1="718" y1="90.69" x2="699.35" y2="80"/><line class="cls-39" x1="702.91" y1="78.22" x2="699.34" y2="91.45"/><line class="cls-39" x1="705.58" y1="79.75" x2="702.01" y2="92.98"/><line class="cls-39" x1="708.25" y1="81.28" x2="704.67" y2="94.5"/><line class="cls-39" x1="710.91" y1="82.81" x2="707.34" y2="96.03"/><line class="cls-39" x1="713.57" y1="84.34" x2="710" y2="97.55"/><line class="cls-39" x1="716.24" y1="85.86" x2="712.67" y2="99.08"/><polygon class="cls-39" points="699.42 76.14 680.77 65.44 677.2 78.67 695.85 89.35 699.42 76.14"/><line class="cls-39" x1="696.74" y1="86.05" x2="678.09" y2="75.37"/><line class="cls-39" x1="697.64" y1="82.75" x2="678.98" y2="72.06"/><line class="cls-39" x1="698.53" y1="79.44" x2="679.88" y2="68.75"/><line class="cls-39" x1="683.44" y1="66.98" x2="679.87" y2="80.2"/><line class="cls-39" x1="686.1" y1="68.5" x2="682.53" y2="81.73"/><line class="cls-39" x1="688.77" y1="70.03" x2="685.2" y2="83.25"/><line class="cls-39" x1="691.43" y1="71.56" x2="687.86" y2="84.78"/><line class="cls-39" x1="694.1" y1="73.09" x2="690.53" y2="86.3"/><line class="cls-39" x1="696.76" y1="74.62" x2="693.19" y2="87.83"/><polygon class="cls-39" points="679.81 64.81 661.16 54.11 657.58 67.34 676.24 78.02 679.81 64.81"/><line class="cls-39" x1="677.13" y1="74.72" x2="658.48" y2="64.03"/><line class="cls-39" x1="678.02" y1="71.41" x2="659.37" y2="60.73"/><line class="cls-39" x1="678.92" y1="68.11" x2="660.26" y2="57.42"/><line class="cls-39" x1="663.82" y1="55.64" x2="660.25" y2="68.87"/><line class="cls-39" x1="666.49" y1="57.17" x2="662.92" y2="70.39"/><line class="cls-39" x1="669.16" y1="58.7" x2="665.58" y2="71.92"/><line class="cls-39" x1="671.82" y1="60.23" x2="668.25" y2="73.45"/><line class="cls-39" x1="674.48" y1="61.76" x2="670.91" y2="74.97"/><line class="cls-39" x1="677.15" y1="63.28" x2="673.58" y2="76.5"/><polygon class="cls-39" points="746.35 69.6 727.7 58.9 724.12 72.13 742.78 82.81 746.35 69.6"/><line class="cls-39" x1="743.67" y1="79.5" x2="725.01" y2="68.82"/><line class="cls-39" x1="744.56" y1="76.2" x2="725.91" y2="65.51"/><line class="cls-39" x1="745.45" y1="72.9" x2="726.8" y2="62.21"/><line class="cls-39" x1="730.36" y1="60.43" x2="726.79" y2="73.65"/><line class="cls-39" x1="733.03" y1="61.96" x2="729.46" y2="75.18"/><line class="cls-39" x1="735.69" y1="63.49" x2="732.12" y2="76.71"/><line class="cls-39" x1="738.36" y1="65.02" x2="734.79" y2="78.23"/><line class="cls-39" x1="741.02" y1="66.54" x2="737.45" y2="79.76"/><line class="cls-39" x1="743.68" y1="68.07" x2="740.11" y2="81.28"/><polygon class="cls-39" points="726.75 58.37 708.1 47.67 704.52 60.9 723.18 71.58 726.75 58.37"/><line class="cls-39" x1="724.07" y1="68.28" x2="705.42" y2="57.59"/><line class="cls-39" x1="724.96" y1="64.97" x2="706.31" y2="54.29"/><line class="cls-39" x1="725.86" y1="61.67" x2="707.2" y2="50.98"/><line class="cls-39" x1="710.77" y1="49.2" x2="707.19" y2="62.43"/><line class="cls-39" x1="713.43" y1="50.73" x2="709.86" y2="63.96"/><line class="cls-39" x1="716.1" y1="52.26" x2="712.53" y2="65.48"/><line class="cls-39" x1="718.76" y1="53.79" x2="715.19" y2="67.01"/><line class="cls-39" x1="721.43" y1="55.32" x2="717.85" y2="68.53"/><line class="cls-39" x1="724.09" y1="56.84" x2="720.52" y2="70.06"/><polygon class="cls-39" points="722.85 72.85 704.2 62.15 700.62 75.38 719.28 86.06 722.85 72.85"/><line class="cls-39" x1="720.17" y1="82.75" x2="701.52" y2="72.07"/><line class="cls-39" x1="721.06" y1="79.45" x2="702.41" y2="68.76"/><line class="cls-39" x1="721.96" y1="76.15" x2="703.3" y2="65.46"/><line class="cls-39" x1="706.86" y1="63.68" x2="703.29" y2="76.91"/><line class="cls-39" x1="709.53" y1="65.21" x2="705.96" y2="78.43"/><line class="cls-39" x1="712.2" y1="66.74" x2="708.62" y2="79.96"/><line class="cls-39" x1="714.86" y1="68.27" x2="711.29" y2="81.48"/><line class="cls-39" x1="717.52" y1="69.79" x2="713.95" y2="83.01"/><line class="cls-39" x1="720.19" y1="71.32" x2="716.62" y2="84.53"/><polygon class="cls-39" points="703.38 61.65 684.73 50.95 681.15 64.18 699.81 74.86 703.38 61.65"/><line class="cls-39" x1="700.7" y1="71.56" x2="682.05" y2="60.87"/><line class="cls-39" x1="701.59" y1="68.25" x2="682.94" y2="57.57"/><line class="cls-39" x1="702.49" y1="64.95" x2="683.83" y2="54.26"/><line class="cls-39" x1="687.4" y1="52.48" x2="683.82" y2="65.71"/><line class="cls-39" x1="690.06" y1="54.01" x2="686.49" y2="67.24"/><line class="cls-39" x1="692.73" y1="55.54" x2="689.15" y2="68.76"/><line class="cls-39" x1="695.39" y1="57.07" x2="691.82" y2="70.29"/><line class="cls-39" x1="698.05" y1="58.6" x2="694.48" y2="71.81"/><line class="cls-39" x1="700.72" y1="60.12" x2="697.15" y2="73.34"/><polygon class="cls-39" points="707.25 47.14 688.6 36.44 685.02 49.67 703.68 60.35 707.25 47.14"/><line class="cls-39" x1="704.57" y1="57.05" x2="685.92" y2="46.36"/><line class="cls-39" x1="705.46" y1="53.74" x2="686.81" y2="43.06"/><line class="cls-39" x1="706.36" y1="50.44" x2="687.7" y2="39.75"/><line class="cls-39" x1="691.27" y1="37.97" x2="687.69" y2="51.2"/><line class="cls-39" x1="693.93" y1="39.5" x2="690.36" y2="52.72"/><line class="cls-39" x1="696.6" y1="41.03" x2="693.02" y2="54.25"/><line class="cls-39" x1="699.26" y1="42.56" x2="695.69" y2="55.78"/><line class="cls-39" x1="701.92" y1="44.08" x2="698.35" y2="57.3"/><line class="cls-39" x1="704.59" y1="45.61" x2="701.02" y2="58.82"/><polygon class="cls-39" points="687.74 35.95 669.09 25.26 665.51 38.49 684.17 49.16 687.74 35.95"/><line class="cls-39" x1="685.06" y1="45.86" x2="666.41" y2="35.18"/><line class="cls-39" x1="685.95" y1="42.56" x2="667.3" y2="31.87"/><line class="cls-39" x1="686.85" y1="39.26" x2="668.19" y2="28.56"/><line class="cls-39" x1="671.75" y1="26.79" x2="668.18" y2="40.01"/><line class="cls-39" x1="674.42" y1="28.32" x2="670.85" y2="41.54"/><line class="cls-39" x1="677.09" y1="29.84" x2="673.51" y2="43.07"/><line class="cls-39" x1="679.75" y1="31.37" x2="676.18" y2="44.59"/><line class="cls-39" x1="682.41" y1="32.9" x2="678.84" y2="46.12"/><line class="cls-39" x1="685.08" y1="34.43" x2="681.51" y2="47.64"/><polygon class="cls-39" points="683.88 50.34 665.23 39.65 661.65 52.88 680.31 63.56 683.88 50.34"/><line class="cls-39" x1="681.2" y1="60.25" x2="662.55" y2="49.57"/><line class="cls-39" x1="682.09" y1="56.95" x2="663.44" y2="46.26"/><line class="cls-39" x1="682.99" y1="53.65" x2="664.33" y2="42.96"/><line class="cls-39" x1="667.9" y1="41.18" x2="664.32" y2="54.4"/><line class="cls-39" x1="670.56" y1="42.71" x2="666.99" y2="55.93"/><line class="cls-39" x1="673.23" y1="44.24" x2="669.66" y2="57.46"/><line class="cls-39" x1="675.89" y1="45.76" x2="672.32" y2="58.98"/><line class="cls-39" x1="678.56" y1="47.29" x2="674.98" y2="60.51"/><line class="cls-39" x1="681.22" y1="48.82" x2="677.65" y2="62.03"/><ellipse class="cls-40" cx="590.34" cy="109.97" rx="11.17" ry="7.41"/><rect class="cls-40" x="579.17" y="104.13" width="22.35" height="5.84"/><rect class="cls-40" x="547.03" y="48.72" width="3.11" height="22.97" transform="translate(103.6 -266.23) rotate(30)"/><path class="cls-40" d="M555.31,56.17a18.6,18.6,0,0,1-7.09,12c-5.31,3.74-9.72,1.11-9-5.41a18.58,18.58,0,0,1,7.11-12.11C551.67,46.9,556.07,49.61,555.31,56.17Z"/><path class="cls-41" d="M557.87,57.66a18.6,18.6,0,0,1-7.09,12c-5.31,3.75-9.72,1.12-9-5.4a18.58,18.58,0,0,1,7.11-12.11C554.23,48.39,558.63,51.1,557.87,57.66Z"/><ellipse class="cls-41" cx="590.34" cy="104.13" rx="11.17" ry="7.41"/><path class="cls-42" d="M557,58.89a14.44,14.44,0,0,1-5.53,9.37c-4.13,2.92-7.57.87-7-4.21A14.43,14.43,0,0,1,550,54.61C554.14,51.66,557.57,53.77,557,58.89Z"/><rect class="cls-42" x="547.89" y="62.49" width="40.11" height="17.91" transform="translate(112.67 -275.53) rotate(30.14)"/><rect class="cls-42" x="583.48" y="87.95" width="13.75" height="17.91" transform="translate(493.44 687.26) rotate(-90)"/><ellipse class="cls-42" cx="590.35" cy="103.36" rx="8.96" ry="5.94"/><path class="cls-42" d="M589.66,73.7a21.45,21.45,0,0,1,7.08,7.2,18,18,0,0,1,2.57,9.34L581.4,100.58s.31-6.87-1.32-10c-1.29-2.47-4.52-4.17-7.6-6.13Z"/><ellipse class="cls-34" cx="572.04" cy="70.81" rx="8.84" ry="5.86"/><rect class="cls-34" x="563.2" y="62.32" width="17.68" height="8.49"/><ellipse class="cls-43" cx="572.05" cy="62.41" rx="10.15" ry="6.74"/><rect class="cls-44" x="561.9" y="60.03" width="20.3" height="2.68"/><ellipse class="cls-41" cx="572.05" cy="59.82" rx="10.15" ry="6.74"/><ellipse class="cls-44" cx="572.04" cy="59.22" rx="6.04" ry="4.01"/><path class="cls-44" d="M578.08,59.48c0,3.23-12.08,3.23-12.08,0a6,6,0,0,1,12.08,0Z"/><rect class="cls-45" x="569.66" y="44.32" width="4.79" height="11.79"/><ellipse class="cls-45" cx="572.05" cy="56.24" rx="2.39" ry="1.58"/><path class="cls-42" d="M582.81,73.89a14.44,14.44,0,0,1-5.53,9.37c-4.13,2.92-7.57.87-7-4.21a14.46,14.46,0,0,1,5.53-9.44C580,66.67,583.4,68.78,582.81,73.89Z"/><ellipse class="cls-46" cx="584.29" cy="53.58" rx="1.69" ry="1.12" transform="translate(245.74 532.8) rotate(-60)"/><rect class="cls-46" x="577.87" y="45.39" width="3.38" height="10.92" transform="matrix(0.5, -0.87, 0.87, 0.5, 245.74, 527.35)"/><circle class="cls-46" cx="584.92" cy="53.94" r="3.98"/><ellipse class="cls-46" cx="582.09" cy="40.67" rx="1.12" ry="1.69" transform="translate(57.65 296.49) rotate(-30)"/><rect class="cls-46" x="575.67" y="37.94" width="3.38" height="10.92" transform="translate(828.46 565.12) rotate(-120)"/><circle class="cls-46" cx="583.41" cy="40.04" r="3.98"/><ellipse class="cls-46" cx="569.47" cy="47.89" rx="1.12" ry="1.69" transform="translate(52.35 291.15) rotate(-30)"/><rect class="cls-46" x="563.05" y="45.16" width="3.38" height="10.92" transform="translate(803.28 565) rotate(-120)"/><circle class="cls-46" cx="559.46" cy="53.74" r="3.98"/><ellipse class="cls-46" cx="569.34" cy="45.43" rx="1.69" ry="1.12" transform="translate(245.32 515.78) rotate(-60)"/><rect class="cls-46" x="562.92" y="37.25" width="3.38" height="10.92" transform="translate(245.32 510.32) rotate(-60)"/><circle class="cls-46" cx="559.99" cy="40.04" r="3.95"/><ellipse class="cls-46" cx="572.04" cy="45.7" rx="4.18" ry="2.78"/><rect class="cls-46" x="567.86" y="45.7" width="8.37" height="2.37"/><ellipse class="cls-46" cx="572.04" cy="48.08" rx="4.18" ry="2.78"/><rect class="cls-45" x="569.66" y="43.48" width="4.79" height="1.45"/><ellipse class="cls-45" cx="572.05" cy="45.07" rx="2.39" ry="1.58"/><ellipse class="cls-44" cx="572.04" cy="43.34" rx="2.4" ry="1.59"/><path class="cls-44" d="M574.44,43.45c0,1.28-4.8,1.28-4.8,0a2.4,2.4,0,0,1,4.8,0Z"/><path class="cls-47" d="M584.3,134c0-3.23,12.08-3.23,12.08,0a6,6,0,0,1-12.08,0Z"/><path class="cls-47" d="M590.34,118.45l2.33,5.4c-.39-.9,3,7.07,3.28,7.69a7.37,7.37,0,0,1,.43,2.45H584.3a7.7,7.7,0,0,1,.41-2.58c.25-.62,2.84-6.58,3.23-7.47S590.34,118.45,590.34,118.45Z"/><polygon class="cls-48" points="286.82 98.27 330.89 72.09 402.29 113.16 356.72 138.65 286.82 98.27"/><polygon class="cls-49" points="286.82 102.59 286.82 98.27 356.72 138.65 356.72 143 286.82 102.59"/><polygon class="cls-1" points="356.72 143 402.29 116.5 402.29 113.16 356.72 138.65 356.72 143"/><polygon class="cls-44" points="336.58 105.63 338.92 116.28 352.53 108.47 350.3 98.45 336.58 105.63"/><polygon class="cls-44" points="309.4 89.89 311.74 100.55 325.35 92.74 323.12 82.72 309.4 89.89"/><path class="cls-50" d="M333.87,54.45c-1.23,10.51-8.21,22.34-16.74,28.38-12.52,8.84-22.93,2.63-21.25-12.75,1.17-10.55,8.16-22.49,16.77-28.58C325.27,32.58,335.66,39,333.87,54.45Z"/><rect class="cls-50" x="310.79" y="48.88" width="55.77" height="54.27" transform="translate(83.97 -159.79) rotate(30.14)"/><path class="cls-51" d="M381.76,82.31c-1.23,10.51-8.21,22.34-16.74,28.38-12.51,8.84-22.93,2.63-21.24-12.76,1.16-10.55,8.16-22.48,16.76-28.58C373.16,60.44,383.56,66.82,381.76,82.31Z"/><path class="cls-52" d="M365.59,98a4,4,0,0,1-1.53,2.6c-1.14.81-2.09.24-1.94-1.17a4.06,4.06,0,0,1,1.53-2.61C364.81,96.05,365.76,96.63,365.59,98Z"/><path class="cls-52" d="M375.19,103.62a4,4,0,0,1-1.53,2.59c-1.15.81-2.1.24-2-1.17a4,4,0,0,1,1.54-2.61C374.4,101.62,375.35,102.2,375.19,103.62Z"/><rect class="cls-52" x="363.08" y="99.04" width="11.08" height="4.96" transform="translate(100.82 -171.38) rotate(30.14)"/><rect class="cls-52" x="370.93" y="103.36" width="4.27" height="11.25"/><ellipse class="cls-34" cx="350.45" cy="63.2" rx="4.9" ry="3.25"/><ellipse class="cls-45" cx="350.45" cy="63.24" rx="2.32" ry="1.54"/><rect class="cls-45" x="348.13" y="55.43" width="4.64" height="7.8"/><ellipse class="cls-34" cx="350.45" cy="56.84" rx="4.9" ry="3.25"/><rect class="cls-34" x="347.09" y="56.61" width="6.73" height="1.06"/><ellipse class="cls-41" cx="350.45" cy="55.39" rx="4.9" ry="3.25"/><ellipse class="cls-42" cx="373.07" cy="122.64" rx="3.01" ry="2"/><path class="cls-44" d="M332.22,99.91l3.93,18,2.78-1.59-2.23-10A11,11,0,0,1,332.22,99.91Z"/><polygon class="cls-51" points="336.15 117.87 331.44 115.17 327.51 97.22 332.22 99.92 336.15 117.87"/><path class="cls-44" d="M305.07,84.15l3.94,18,2.78-1.59-2.23-10A11,11,0,0,1,305.07,84.15Z"/><polygon class="cls-51" points="309.01 102.11 304.2 99.35 300.26 81.39 305.07 84.15 309.01 102.11"/><polygon class="cls-42" points="370.05 117.05 370.93 114.61 375.2 114.61 376.08 117.05 370.05 117.05"/><ellipse class="cls-52" cx="373.07" cy="114.61" rx="2.14" ry="1.42"/><rect class="cls-42" x="370.05" y="117.05" width="6.03" height="5.59"/><circle class="cls-53" cx="91.49" cy="91.49" r="90.49"/><polygon class="cls-54" points="263.21 91.03 234.42 64 234.42 76.75 208.92 76.75 208.92 90.2 208.92 91.87 208.92 105.32 234.42 105.32 234.42 118.07 263.21 91.04 263.21 91.04 263.21 91.03 263.21 91.03 263.21 91.03"/><rect class="cls-55" x="1" y="0.75" width="750.09" height="189.45"/></g></g></svg>